<?xml version="1.0" standalone="no"?>
<!DOCTYPE svg PUBLIC "-//W3C//DTD SVG 20010904//EN"
 "http://www.w3.org/TR/2001/REC-SVG-20010904/DTD/svg10.dtd">
<svg version="1.0" xmlns="http://www.w3.org/2000/svg"
 width="32.000000pt" height="32.000000pt" viewBox="0 0 32.000000 32.000000"
 preserveAspectRatio="xMidYMid meet">
<metadata>
Created by potrace 1.10, written by Peter Selinger 2001-2011
</metadata>
<g transform="translate(0.000000,32.000000) scale(0.100000,-0.100000)"
fill="#000000" stroke="none">
<path d="M37 313 c-4 -3 -7 -21 -7 -39 0 -19 -6 -34 -15 -38 -9 -3 -15 -19
-15 -41 l0 -35 61 0 60 0 -3 38 c-3 35 -5 37 -40 40 -35 3 -38 6 -38 33 0 20
4 28 12 23 7 -5 8 -3 3 5 -6 10 19 12 113 9 66 -1 118 0 115 5 -5 9 -237 10
-246 0z m73 -118 c0 -23 -3 -25 -50 -25 -47 0 -50 2 -50 25 0 23 3 25 50 25
47 0 50 -2 50 -25z"/>
<path d="M130 230 l0 -60 95 0 95 0 0 60 0 60 -95 0 -95 0 0 -60z m180 18 c0
-32 -1 -33 -43 -33 -23 0 -51 5 -61 11 -16 9 -25 9 -43 -3 -23 -15 -23 -15
-23 21 l0 36 85 0 85 0 0 -32z m-95 -44 c20 -13 28 -14 40 -4 15 12 55 5 55
-11 0 -5 -38 -9 -85 -9 -47 0 -85 4 -85 8 0 7 32 27 48 31 1 1 14 -6 27 -15z"/>
<path d="M241 256 c-12 -14 -5 -26 16 -26 15 0 18 26 4 34 -5 3 -14 0 -20 -8z"/>
<path d="M55 270 c3 -5 17 -10 30 -10 13 0 27 5 30 10 4 6 -8 10 -30 10 -22 0
-34 -4 -30 -10z"/>
<path d="M32 98 c-2 -45 -5 -58 -18 -58 -9 0 -14 -7 -12 -17 3 -16 18 -18 143
-18 132 0 140 1 143 20 4 20 4 20 -12 0 -13 -18 -15 -18 -16 -3 0 15 -14 18
-108 20 l-107 3 -6 55 -6 55 -1 -57z m218 -78 c0 -6 -47 -10 -120 -10 -73 0
-120 4 -120 10 0 6 47 10 120 10 73 0 120 -4 120 -10z"/>
<path d="M52 113 l3 -38 70 0 70 0 3 38 3 37 -76 0 -76 0 3 -37z m136 0 c3
-22 0 -23 -62 -23 -64 0 -66 1 -66 25 0 25 1 26 63 23 56 -3 62 -5 65 -25z"/>
<path d="M93 103 c9 -2 25 -2 35 0 9 3 1 5 -18 5 -19 0 -27 -2 -17 -5z"/>
<path d="M210 90 l0 -40 55 0 55 0 0 40 0 40 -55 0 -55 0 0 -40z m100 0 c0
-29 -2 -30 -45 -30 -43 0 -45 1 -45 30 0 29 2 30 45 30 43 0 45 -1 45 -30z"/>
<path d="M250 80 c0 -5 9 -10 20 -10 11 0 20 5 20 10 0 6 -9 10 -20 10 -11 0
-20 -4 -20 -10z"/>
</g>
</svg>
