<?xml version="1.0" standalone="no"?>
<!DOCTYPE svg PUBLIC "-//W3C//DTD SVG 20010904//EN"
 "http://www.w3.org/TR/2001/REC-SVG-20010904/DTD/svg10.dtd">
<svg version="1.0" xmlns="http://www.w3.org/2000/svg"
 width="32.000000pt" height="32.000000pt" viewBox="0 0 32.000000 32.000000"
 preserveAspectRatio="xMidYMid meet">
<metadata>
Created by potrace 1.10, written by Peter Selinger 2001-2011
</metadata>
<g transform="translate(0.000000,32.000000) scale(0.100000,-0.100000)"
fill="#000000" stroke="none">
<path d="M45 289 l-35 -31 0 -129 0 -129 130 0 c120 0 131 2 150 22 28 30 25
54 -10 90 -29 28 -30 33 -30 119 l0 89 -85 0 c-80 0 -86 -2 -120 -31z m190
-69 c0 -50 -3 -90 -7 -90 -5 0 -17 -9 -28 -20 -22 -22 -27 -69 -8 -88 9 -9 -7
-12 -75 -12 l-87 0 0 115 0 115 30 0 c28 0 30 3 30 35 l0 35 73 0 72 0 0 -90z
m-155 60 c0 -14 -7 -20 -22 -20 -20 0 -21 1 -3 20 10 11 20 20 22 20 1 0 3 -9
3 -20z m188 -176 c33 -23 27 -75 -10 -88 -22 -8 -32 -6 -48 9 -25 23 -26 49 0
75 24 24 29 24 58 4z"/>
<path d="M133 209 c-30 -9 -33 -13 -33 -48 0 -30 -4 -40 -20 -44 -24 -6 -16
-40 9 -35 11 2 17 16 19 46 2 23 6 42 10 42 4 0 17 3 30 6 18 5 22 2 22 -15 0
-12 -6 -21 -15 -21 -20 0 -19 -29 1 -37 23 -8 34 14 34 70 0 51 -2 52 -57 36z"/>
<path d="M241 78 c-1 -21 -5 -26 -18 -21 -17 6 -17 5 0 -13 17 -18 17 -18 35
0 9 10 12 16 5 12 -7 -4 -13 4 -16 21 l-4 28 -2 -27z"/>
</g>
</svg>
